<svg xmlns="http://www.w3.org/2000/svg" viewBox="0 0 295.71 292.16">
<title>Asset 1</title><g id="Layer_2" data-name="Layer 2"><g id="Layer_1-2" data-name="Layer 1"><g id="Layer_2-2" data-name="Layer 2"><g id="Layer_1-2-2" data-name="Layer 1-2"><path d="M293.13,292.05c-27.62,0-53.93.07-80.24-.17-1.77,0-4-2.07-5.2-3.74q-28.82-39.29-57.43-78.74c-1.06-1.46-2.19-2.87-3.7-4.86-1.33,1.74-2.42,3.11-3.45,4.53Q114.42,248.46,85.8,287.9c-2.16,3-4.33,4.29-8.15,4.26-24-.2-48-.1-72-.1H0l72.63-99.81H.08l66.25-91H3.27c1.34-2.07,2.13-3.44,3-4.71Q40,50.18,73.62,3.89C75.54,1.24,77.49,0,81,0c45.82.13,91.64,0,137.47.21a8.65,8.65,0,0,1,6.12,2.84q34.8,47.3,69.24,94.87c.55.76,1,1.6,1.93,3.1h-69L293,192.17H220.49ZM209.31,190.78l-62.77-86.17L83.82,190.78ZM206,91l-56.5-77.61L93,91Z"/></g></g></g></g></svg>
