<svg xmlns="http://www.w3.org/2000/svg" viewBox="0 0 288.94 302.94"><defs>
</defs><title>Asset 3</title>
<g id="Layer_2" data-name="Layer 2"><g id="Layer_1-2" data-name="Layer 1">
<path d="M250.65,82.87c-1.37.85-2.46,1.6-3.61,2.23q-51.78,28.15-103.56,56.31c-2.33,1.27-4.11,1.85-6.78.22Q87.11,111.18,37.34,81c-.56-.34-1.07-.77-2.15-1.57,1.35-1,2.42-1.84,3.59-2.53q48.43-28.51,96.85-57c2.89-1.71,5.23-2,8.26-.23Q195.7,50.29,247.61,80.74C248.59,81.32,249.48,82,250.65,82.87Z" transform="translate(-1.03 -0.36)"/>
<path d="M242,220.06c-1.7,1.14-2.89,2-4.15,2.77q-47.07,28.79-94.13,57.61c-2.53,1.56-4.38,1.95-7.14.25q-50.6-31.16-101.35-62.07c-1.08-.66-2.08-1.46-3.5-2.46,1.68-1,2.89-1.81,4.15-2.5q49.78-27.08,99.57-54.16c2.45-1.34,4.37-2,7.21-.28q48.5,29.81,97.18,59.32C240.37,218.87,240.88,219.29,242,220.06Z" transform="translate(-1.03 -0.36)"/>
<path d="M253,95.66V212.34L151.74,150.69Z" transform="translate(-1.03 -0.36)"/>
<path d="M127.44,150.08,27,204.64V88.91Z" transform="translate(-1.03 -0.36)"/></g></g></svg>
