<svg xmlns="http://www.w3.org/2000/svg" viewBox="0 0 302 172">
<defs></defs><title>Asset 2</title>
<g id="Layer_2" data-name="Layer 2">
<g id="Layer_1-2" data-name="Layer 1">
<path d="M94.25,7.13c8.79,16.09,17,31,25,45.94a6.11,6.11,0,0,1-.34,5Q93,104.5,66.75,150.79a5.88,5.88,0,0,1-4.08,2.76c-16.16.16-32.32.06-48.49,0-.28,0-.55-.27-1.54-.79Z" transform="translate(-1 -1)"/>
<path d="M291.09,153.68c-17.65,0-34,.06-50.27-.11a5.81,5.81,0,0,1-4.19-2.53q-26.35-46.48-52.36-93.14a5.44,5.44,0,0,1-.14-4.46c8-15,16.18-29.82,25-46Z" transform="translate(-1 -1)"/>
<path d="M230.2,153.67c-15.61,0-29.58.07-43.54-.12-1.27,0-3-1.39-3.69-2.61q-12.57-22.15-24.78-44.49A5.56,5.56,0,0,1,158,102c7.34-14,14.87-27.87,22.8-42.62Z" transform="translate(-1 -1)"/>
<path d="M73.63,153.68l50.25-90.13,7.28,12.55c4.84,8.36,9.83,16.63,14.41,25.13a7.78,7.78,0,0,1,.12,6.25c-7.32,14.39-14.89,28.66-22.57,42.86-.79,1.46-2.8,3.17-4.27,3.19C104.19,153.77,89.53,153.68,73.63,153.68Z" transform="translate(-1 -1)"/>
<path d="M151.49,96.67c-7.78-13.44-15.12-26.06-22.34-38.75a4.32,4.32,0,0,1,0-3.58c7.25-13.24,14.64-26.41,22.45-40.41,4.08,8,7.87,15.26,11.55,22.59C166.37,43,172,49.58,172,56.12c0,6.34-5.83,12.68-9.14,19C159.26,82,155.6,88.9,151.49,96.67Z" transform="translate(-1 -1)"/>
<path d="M151.55,110.56l20.23,42.68H129.57Z" transform="translate(-1 -1)"/></g></g></svg>
